<mxfile host="drawio-plugin" modified="2021-11-12T14:14:40.273Z" agent="5.0 (Windows NT 6.2; Win64; x64) AppleWebKit/537.36 (KHTML, like Gecko) Chrome/84.0.4147.105 Safari/537.36" etag="l48u3DPMuwbjX-LhPtrF" version="14.7.4" type="embed"><diagram id="kgpKYQtTHZ0yAKxKKP6v" name="Page-1"><mxGraphModel dx="972" dy="603" grid="1" gridSize="10" guides="1" tooltips="1" connect="1" arrows="1" fold="1" page="1" pageScale="1" pageWidth="2339" pageHeight="3300" math="0" shadow="0"><root><mxCell id="0"/><mxCell id="1" parent="0"/><mxCell id="3nuBFxr9cyL0pnOWT2aG-1" value="PlaneController: &#10;addPlane" style="shape=umlLifeline;perimeter=lifelinePerimeter;container=1;collapsible=0;recursiveResize=0;rounded=0;shadow=0;strokeWidth=1;fontSize=9;" parent="1" vertex="1"><mxGeometry x="845" y="320" width="100" height="670" as="geometry"/></mxCell><mxCell id="3nuBFxr9cyL0pnOWT2aG-2" value="" style="points=[];perimeter=orthogonalPerimeter;rounded=0;shadow=0;strokeWidth=1;" parent="3nuBFxr9cyL0pnOWT2aG-1" vertex="1"><mxGeometry x="45" y="70" width="10" height="500" as="geometry"/></mxCell><mxCell id="3nuBFxr9cyL0pnOWT2aG-5" value="PlaneService:&#10;addPlane" style="shape=umlLifeline;perimeter=lifelinePerimeter;container=1;collapsible=0;recursiveResize=0;rounded=0;shadow=0;strokeWidth=1;fontSize=9;" parent="1" vertex="1"><mxGeometry x="1070" y="325" width="100" height="630" as="geometry"/></mxCell><mxCell id="3nuBFxr9cyL0pnOWT2aG-6" value="" style="points=[];perimeter=orthogonalPerimeter;rounded=0;shadow=0;strokeWidth=1;" parent="3nuBFxr9cyL0pnOWT2aG-5" vertex="1"><mxGeometry x="45" y="80" width="10" height="490" as="geometry"/></mxCell><mxCell id="Fd8FxSf_azzKfpY1bieM-1" value="FleetService:addPlane" style="shape=umlLifeline;perimeter=lifelinePerimeter;container=1;collapsible=0;recursiveResize=0;rounded=0;shadow=0;strokeWidth=1;fontSize=9;" parent="1" vertex="1"><mxGeometry x="1440" y="320" width="100" height="520" as="geometry"/></mxCell><mxCell id="Fd8FxSf_azzKfpY1bieM-2" value="" style="points=[];perimeter=orthogonalPerimeter;rounded=0;shadow=0;strokeWidth=1;" parent="Fd8FxSf_azzKfpY1bieM-1" vertex="1"><mxGeometry x="45" y="300" width="10" height="220" as="geometry"/></mxCell><mxCell id="Fd8FxSf_azzKfpY1bieM-4" value="PlaneRepository:&#10;PlaneRepository" style="shape=umlLifeline;perimeter=lifelinePerimeter;container=1;collapsible=0;recursiveResize=0;rounded=0;shadow=0;strokeWidth=1;fontSize=9;" parent="1" vertex="1"><mxGeometry x="2160" y="320" width="100" height="560" as="geometry"/></mxCell><mxCell id="Fd8FxSf_azzKfpY1bieM-5" value="" style="points=[];perimeter=orthogonalPerimeter;rounded=0;shadow=0;strokeWidth=1;" parent="Fd8FxSf_azzKfpY1bieM-4" vertex="1"><mxGeometry x="45" y="80" width="10" height="220" as="geometry"/></mxCell><mxCell id="Fd8FxSf_azzKfpY1bieM-15" value="1.1.1: AddPlane(planeRequestDTO)" style="verticalAlign=bottom;endArrow=block;shadow=0;strokeWidth=1;" parent="1" source="3nuBFxr9cyL0pnOWT2aG-2" target="3nuBFxr9cyL0pnOWT2aG-5" edge="1"><mxGeometry x="0.039" y="10" relative="1" as="geometry"><mxPoint x="920.0000000000002" y="649.9999999999998" as="sourcePoint"/><mxPoint x="1160" y="410" as="targetPoint"/><Array as="points"><mxPoint x="1000" y="410"/></Array><mxPoint as="offset"/></mxGeometry></mxCell><mxCell id="Fd8FxSf_azzKfpY1bieM-16" value="Plane: Plane" style="shape=umlLifeline;perimeter=lifelinePerimeter;container=1;collapsible=0;recursiveResize=0;rounded=0;shadow=0;strokeWidth=1;fontSize=9;" parent="1" vertex="1"><mxGeometry x="1310" y="320" width="100" height="250" as="geometry"/></mxCell><mxCell id="Fd8FxSf_azzKfpY1bieM-17" value="" style="points=[];perimeter=orthogonalPerimeter;rounded=0;shadow=0;strokeWidth=1;" parent="Fd8FxSf_azzKfpY1bieM-16" vertex="1"><mxGeometry x="45" y="180" width="10" height="60" as="geometry"/></mxCell><mxCell id="Fd8FxSf_azzKfpY1bieM-18" value="1.1.1.1: existsByParams" style="verticalAlign=bottom;endArrow=block;shadow=0;strokeWidth=1;entryX=0;entryY=0.127;entryDx=0;entryDy=0;entryPerimeter=0;" parent="1" source="3nuBFxr9cyL0pnOWT2aG-6" target="Fd8FxSf_azzKfpY1bieM-5" edge="1"><mxGeometry relative="1" as="geometry"><mxPoint x="1200" y="550" as="sourcePoint"/><mxPoint x="2050" y="430" as="targetPoint"/><Array as="points"><mxPoint x="1290" y="430"/></Array></mxGeometry></mxCell><mxCell id="Fd8FxSf_azzKfpY1bieM-19" value="1.1.1.2: existsOrNot" style="verticalAlign=bottom;endArrow=open;dashed=1;endSize=8;shadow=0;strokeWidth=1;" parent="1" source="Fd8FxSf_azzKfpY1bieM-5" target="3nuBFxr9cyL0pnOWT2aG-5" edge="1"><mxGeometry relative="1" as="geometry"><mxPoint x="1230.0000000000002" y="449.9999999999999" as="targetPoint"/><mxPoint x="1977" y="460" as="sourcePoint"/><Array as="points"><mxPoint x="1970" y="460"/><mxPoint x="1767" y="460"/></Array></mxGeometry></mxCell><mxCell id="Fd8FxSf_azzKfpY1bieM-20" value="1.1.1.3: new Plane&#10;(type, seatsBusiness, seatsEconomy, seatsFirstClass)" style="verticalAlign=bottom;endArrow=block;shadow=0;strokeWidth=1;dashed=1;" parent="1" source="3nuBFxr9cyL0pnOWT2aG-6" target="Fd8FxSf_azzKfpY1bieM-17" edge="1"><mxGeometry relative="1" as="geometry"><mxPoint x="1185" y="520" as="sourcePoint"/><mxPoint x="1490" y="520" as="targetPoint"/><Array as="points"><mxPoint x="1300" y="520"/></Array></mxGeometry></mxCell><mxCell id="Fd8FxSf_azzKfpY1bieM-21" value="1.1.1.4: Plane  plane" style="verticalAlign=bottom;endArrow=open;dashed=1;endSize=8;shadow=0;strokeWidth=1;exitX=0.2;exitY=0.833;exitDx=0;exitDy=0;exitPerimeter=0;entryX=0.497;entryY=0.357;entryDx=0;entryDy=0;entryPerimeter=0;" parent="1" source="Fd8FxSf_azzKfpY1bieM-17" target="3nuBFxr9cyL0pnOWT2aG-5" edge="1"><mxGeometry x="-0.0095" relative="1" as="geometry"><mxPoint x="1170.0003448275866" y="550" as="targetPoint"/><mxPoint x="1449.6899999999996" y="550" as="sourcePoint"/><mxPoint as="offset"/></mxGeometry></mxCell><mxCell id="Fd8FxSf_azzKfpY1bieM-22" value="1.1.1.5: save(plane)" style="verticalAlign=bottom;endArrow=block;shadow=0;strokeWidth=1;fontStyle=2;exitX=0.544;exitY=0.437;exitDx=0;exitDy=0;exitPerimeter=0;" parent="1" source="3nuBFxr9cyL0pnOWT2aG-5" target="Fd8FxSf_azzKfpY1bieM-4" edge="1"><mxGeometry relative="1" as="geometry"><mxPoint x="1170" y="600" as="sourcePoint"/><mxPoint x="1444.4999999999995" y="600" as="targetPoint"/><Array as="points"><mxPoint x="1285" y="600"/></Array></mxGeometry></mxCell><mxCell id="Fd8FxSf_azzKfpY1bieM-26" value="1.1.1.6: addPlane(plane)" style="verticalAlign=bottom;endArrow=block;shadow=0;strokeWidth=1;fontStyle=0" parent="1" source="3nuBFxr9cyL0pnOWT2aG-5" target="Fd8FxSf_azzKfpY1bieM-1" edge="1"><mxGeometry x="0.0734" y="5" relative="1" as="geometry"><mxPoint x="1190" y="690" as="sourcePoint"/><mxPoint x="1789.4999999999995" y="690" as="targetPoint"/><Array as="points"><mxPoint x="1400" y="640"/></Array><mxPoint as="offset"/></mxGeometry></mxCell><mxCell id="Fd8FxSf_azzKfpY1bieM-31" value="1.1.1.7: PlaneResponseDTO" style="verticalAlign=bottom;endArrow=open;dashed=1;endSize=8;shadow=0;strokeWidth=1;exitX=0.2;exitY=0.931;exitDx=0;exitDy=0;exitPerimeter=0;" parent="1" source="3nuBFxr9cyL0pnOWT2aG-6" edge="1"><mxGeometry relative="1" as="geometry"><mxPoint x="900.5003448275866" y="859.9999999999998" as="targetPoint"/><mxPoint x="1170" y="860" as="sourcePoint"/></mxGeometry></mxCell><mxCell id="Fd8FxSf_azzKfpY1bieM-32" value="1.1.1.7.1:&#10;: PlaneResponseDTO" style="verticalAlign=bottom;endArrow=open;dashed=1;endSize=8;shadow=0;strokeWidth=1;entryX=0.9;entryY=0.976;entryDx=0;entryDy=0;entryPerimeter=0;" parent="1" target="32" edge="1"><mxGeometry relative="1" as="geometry"><mxPoint x="780" y="880" as="targetPoint"/><mxPoint x="889.5" y="879.9999999999998" as="sourcePoint"/></mxGeometry></mxCell><mxCell id="Fd8FxSf_azzKfpY1bieM-37" style="edgeStyle=orthogonalEdgeStyle;curved=0;rounded=1;sketch=0;orthogonalLoop=1;jettySize=auto;html=1;fontSize=9;endArrow=none;endFill=0;dashed=1;" parent="1" source="Fd8FxSf_azzKfpY1bieM-36" edge="1"><mxGeometry relative="1" as="geometry"><mxPoint x="615.0000000000002" y="949.9999999999998" as="targetPoint"/></mxGeometry></mxCell><mxCell id="Fd8FxSf_azzKfpY1bieM-36" value="Actor&lt;br&gt;" style="shape=umlActor;verticalLabelPosition=bottom;verticalAlign=top;html=1;outlineConnect=0;rounded=0;sketch=0;fontSize=9;" parent="1" vertex="1"><mxGeometry x="600" y="290" width="30" height="60" as="geometry"/></mxCell><mxCell id="5" value="AirlineService:getAirline" style="shape=umlLifeline;perimeter=lifelinePerimeter;container=1;collapsible=0;recursiveResize=0;rounded=0;shadow=0;strokeWidth=1;fontSize=9;" parent="1" vertex="1"><mxGeometry x="1800" y="320" width="100" height="420" as="geometry"/></mxCell><mxCell id="6" value="" style="points=[];perimeter=orthogonalPerimeter;rounded=0;shadow=0;strokeWidth=1;" parent="5" vertex="1"><mxGeometry x="45" y="300" width="10" height="110" as="geometry"/></mxCell><mxCell id="7" value="AirlineRepository:&#10;AirlineRepository" style="shape=umlLifeline;perimeter=lifelinePerimeter;container=1;collapsible=0;recursiveResize=0;rounded=0;shadow=0;strokeWidth=1;fontSize=9;" parent="1" vertex="1"><mxGeometry x="1920" y="320" width="100" height="420" as="geometry"/></mxCell><mxCell id="8" value="" style="points=[];perimeter=orthogonalPerimeter;rounded=0;shadow=0;strokeWidth=1;" parent="7" vertex="1"><mxGeometry x="45" y="300" width="10" height="110" as="geometry"/></mxCell><mxCell id="9" value="1.1.1.6.1: getAirline()" style="verticalAlign=bottom;endArrow=block;shadow=0;strokeWidth=1;fontStyle=0;" parent="1" target="6" edge="1"><mxGeometry x="0.1058" y="2" relative="1" as="geometry"><mxPoint x="1490" y="650" as="sourcePoint"/><mxPoint x="1730" y="650" as="targetPoint"/><Array as="points"><mxPoint x="1520" y="650"/><mxPoint x="1810" y="650"/></Array><mxPoint as="offset"/></mxGeometry></mxCell><mxCell id="10" value="1.1.1.6.1.1 : findAll()" style="verticalAlign=bottom;endArrow=block;shadow=0;strokeWidth=1;fontStyle=0;exitX=0.5;exitY=0.364;exitDx=0;exitDy=0;exitPerimeter=0;" parent="1" source="6" target="8" edge="1"><mxGeometry x="0.0734" y="5" relative="1" as="geometry"><mxPoint x="1860" y="660" as="sourcePoint"/><mxPoint x="1940" y="660" as="targetPoint"/><Array as="points"/><mxPoint as="offset"/></mxGeometry></mxCell><mxCell id="12" value="1.1.1.6.1.2: List&lt;Airline&gt;" style="verticalAlign=bottom;endArrow=open;dashed=1;endSize=8;shadow=0;strokeWidth=1;" parent="1" source="8" target="6" edge="1"><mxGeometry relative="1" as="geometry"><mxPoint x="1850" y="700" as="targetPoint"/><mxPoint x="1857" y="700" as="sourcePoint"/><Array as="points"><mxPoint x="1910" y="690"/></Array></mxGeometry></mxCell><mxCell id="13" value="1.1.1.6.2: Airline" style="verticalAlign=bottom;endArrow=open;dashed=1;endSize=8;shadow=0;strokeWidth=1;" parent="1" source="6" target="Fd8FxSf_azzKfpY1bieM-1" edge="1"><mxGeometry relative="1" as="geometry"><mxPoint x="1610" y="710" as="targetPoint"/><mxPoint x="1720" y="710" as="sourcePoint"/><Array as="points"><mxPoint x="1670" y="690"/></Array></mxGeometry></mxCell><mxCell id="14" value="FleetRepository:&#10;FleetRepository" style="shape=umlLifeline;perimeter=lifelinePerimeter;container=1;collapsible=0;recursiveResize=0;rounded=0;shadow=0;strokeWidth=1;fontSize=9;" parent="1" vertex="1"><mxGeometry x="2040" y="320" width="100" height="560" as="geometry"/></mxCell><mxCell id="15" value="" style="points=[];perimeter=orthogonalPerimeter;rounded=0;shadow=0;strokeWidth=1;" parent="14" vertex="1"><mxGeometry x="45" y="480" width="10" height="40" as="geometry"/></mxCell><mxCell id="22" value="Airline: airline" style="shape=umlLifeline;perimeter=lifelinePerimeter;container=1;collapsible=0;recursiveResize=0;rounded=0;shadow=0;strokeWidth=1;fontSize=9;" parent="1" vertex="1"><mxGeometry x="1680" y="320" width="100" height="460" as="geometry"/></mxCell><mxCell id="23" value="" style="points=[];perimeter=orthogonalPerimeter;rounded=0;shadow=0;strokeWidth=1;" parent="22" vertex="1"><mxGeometry x="45" y="410" width="10" height="50" as="geometry"/></mxCell><mxCell id="24" value="Fleet: fleet" style="shape=umlLifeline;perimeter=lifelinePerimeter;container=1;collapsible=0;recursiveResize=0;rounded=0;shadow=0;strokeWidth=1;fontSize=9;" parent="1" vertex="1"><mxGeometry x="1560" y="320" width="100" height="490" as="geometry"/></mxCell><mxCell id="25" value="" style="points=[];perimeter=orthogonalPerimeter;rounded=0;shadow=0;strokeWidth=1;" parent="24" vertex="1"><mxGeometry x="45" y="460" width="10" height="20" as="geometry"/></mxCell><mxCell id="26" value="1.1.1.6.3: getFleet()" style="verticalAlign=bottom;endArrow=block;shadow=0;strokeWidth=1;fontStyle=0;" parent="1" target="23" edge="1"><mxGeometry x="0.0734" y="5" relative="1" as="geometry"><mxPoint x="1499" y="740" as="sourcePoint"/><mxPoint x="1730" y="750" as="targetPoint"/><Array as="points"><mxPoint x="1530" y="740"/></Array><mxPoint as="offset"/></mxGeometry></mxCell><mxCell id="27" value="1.1.1.6.4: Fleet" style="verticalAlign=bottom;endArrow=open;dashed=1;endSize=8;shadow=0;strokeWidth=1;exitX=0.097;exitY=0.763;exitDx=0;exitDy=0;exitPerimeter=0;" parent="1" source="23" edge="1"><mxGeometry relative="1" as="geometry"><mxPoint x="1490" y="768" as="targetPoint"/><mxPoint x="1725" y="756" as="sourcePoint"/><Array as="points"><mxPoint x="1540" y="768"/></Array></mxGeometry></mxCell><mxCell id="28" value="1.1.1.6.5: addPlane(plane)" style="verticalAlign=bottom;endArrow=block;shadow=0;strokeWidth=1;fontStyle=0;" parent="1" edge="1"><mxGeometry relative="1" as="geometry"><mxPoint x="1490" y="790" as="sourcePoint"/><mxPoint x="1610" y="789.66" as="targetPoint"/></mxGeometry></mxCell><mxCell id="29" value="1.1.1.6.7: saveAndFlush(fleet)" style="verticalAlign=bottom;endArrow=block;shadow=0;strokeWidth=1;fontStyle=0;entryX=0.097;entryY=0.369;entryDx=0;entryDy=0;entryPerimeter=0;" parent="1" source="Fd8FxSf_azzKfpY1bieM-2" target="15" edge="1"><mxGeometry relative="1" as="geometry"><mxPoint x="1510" y="820.34" as="sourcePoint"/><mxPoint x="1930" y="820" as="targetPoint"/></mxGeometry></mxCell><mxCell id="31" value="Spring Web" style="shape=umlLifeline;perimeter=lifelinePerimeter;container=1;collapsible=0;recursiveResize=0;rounded=0;shadow=0;strokeWidth=1;fontSize=9;" parent="1" vertex="1"><mxGeometry x="700" y="320" width="100" height="670" as="geometry"/></mxCell><mxCell id="32" value="" style="points=[];perimeter=orthogonalPerimeter;rounded=0;shadow=0;strokeWidth=1;" parent="31" vertex="1"><mxGeometry x="45" y="70" width="10" height="500" as="geometry"/></mxCell><mxCell id="33" value="1: POST: PlaneRequestDTO" style="verticalAlign=bottom;startArrow=none;endArrow=block;startSize=8;shadow=0;strokeWidth=1;startFill=0;" parent="31" target="32" edge="1"><mxGeometry relative="1" as="geometry"><mxPoint x="-80" y="70" as="sourcePoint"/></mxGeometry></mxCell><mxCell id="3nuBFxr9cyL0pnOWT2aG-3" value="1.1: addPlane&#10;(planeRequestDTO)" style="verticalAlign=bottom;startArrow=none;endArrow=block;startSize=8;shadow=0;strokeWidth=1;startFill=0;exitX=0.9;exitY=0.02;exitDx=0;exitDy=0;exitPerimeter=0;" parent="1" source="32" target="3nuBFxr9cyL0pnOWT2aG-2" edge="1"><mxGeometry relative="1" as="geometry"><mxPoint x="780" y="390" as="sourcePoint"/><Array as="points"><mxPoint x="800" y="400"/></Array></mxGeometry></mxCell><mxCell id="34" value="1.1.1.7.1.1: PlaneResponseDTO" style="verticalAlign=bottom;endArrow=open;dashed=1;endSize=8;shadow=0;strokeWidth=1;" parent="1" edge="1"><mxGeometry relative="1" as="geometry"><mxPoint x="620" y="880" as="targetPoint"/><mxPoint x="751" y="880" as="sourcePoint"/></mxGeometry></mxCell></root></mxGraphModel></diagram></mxfile>